<svg width="1024" height="1024" viewBox="0 0 1024 1024" fill="none" xmlns="http://www.w3.org/2000/svg">
<rect width="1024" height="1024" rx="30" fill="#26055F"/>
<path fill-rule="evenodd" clip-rule="evenodd" d="M777 464C777 555.794 730.328 636.688 659.418 684.244H364.582C293.673 636.688 247 555.794 247 464C247 317.645 365.645 199 512 199C658.355 199 777 317.645 777 464ZM271.279 699.844C211.721 639.063 175 555.82 175 464C175 277.88 325.88 127 512 127C698.12 127 849 277.88 849 464C849 555.82 812.279 639.062 752.721 699.844L782.616 880.239C784.029 888.768 777.45 896.527 768.804 896.527H255.196C246.55 896.527 239.971 888.768 241.385 880.239L271.279 699.844ZM297.653 846.527L316.26 734.244H707.74L726.347 846.527H297.653ZM340.055 790.386C340.055 776.026 351.696 764.386 366.055 764.386H652.638C666.997 764.386 678.638 776.026 678.638 790.386C678.638 804.745 666.997 816.386 652.638 816.386H366.055C351.696 816.386 340.055 804.745 340.055 790.386ZM360.906 437.438C377.041 398.744 391.727 375.23 409.778 357.397C427.965 339.43 451.921 324.889 490.674 307.98C508.898 300.029 517.225 278.81 509.273 260.587C501.322 242.364 480.104 234.037 461.881 241.988C419.803 260.348 386.54 279.144 359.177 306.177C331.676 333.345 312.479 366.496 294.452 409.728C286.8 428.078 295.473 449.158 313.824 456.81C332.175 464.462 353.254 455.789 360.906 437.438Z" fill="white"/>
</svg>
